<mxfile host="app.diagrams.net" modified="2023-12-24T17:39:04.268Z" agent="Mozilla/5.0 (X11; Ubuntu; Linux x86_64; rv:121.0) Gecko/20100101 Firefox/121.0" etag="KLb0cV_SMUAmu-9uTNiZ" version="22.1.11" type="device">
  <diagram id="4JDMdlQKLtHHJvqLDzob" name="Политика архитектуры v0.00">
    <mxGraphModel dx="1375" dy="766" grid="1" gridSize="10" guides="1" tooltips="1" connect="1" arrows="1" fold="1" page="1" pageScale="1" pageWidth="1100" pageHeight="850" math="0" shadow="0">
      <root>
        <mxCell id="0" />
        <mxCell id="1" parent="0" />
        <mxCell id="RpfdrgC46bGrJUgdeSrm-2" value="" style="group" parent="1" vertex="1" connectable="0">
          <mxGeometry x="810" y="120" width="250" height="293" as="geometry" />
        </mxCell>
        <mxCell id="RpfdrgC46bGrJUgdeSrm-3" value="&lt;h1&gt;Легенда&lt;/h1&gt;&lt;p&gt;недоверенная сущность&lt;/p&gt;&lt;p&gt;&lt;br&gt;&lt;/p&gt;&lt;p&gt;доверенная сущность&lt;/p&gt;&lt;p&gt;&lt;br&gt;&lt;/p&gt;&lt;p&gt;доверенная сущность, повышающая целостность данных&lt;br&gt;&lt;br&gt;&lt;/p&gt;&lt;p&gt;высокоцелостные данные&lt;/p&gt;&lt;p&gt;&lt;br&gt;&lt;/p&gt;&lt;p&gt;низкоцелостные данные&lt;/p&gt;" style="text;html=1;strokeColor=none;fillColor=none;spacing=5;spacingTop=-20;whiteSpace=wrap;overflow=hidden;rounded=0;" parent="RpfdrgC46bGrJUgdeSrm-2" vertex="1">
          <mxGeometry x="50" width="200" height="293" as="geometry" />
        </mxCell>
        <mxCell id="RpfdrgC46bGrJUgdeSrm-4" value="" style="rounded=1;whiteSpace=wrap;html=1;strokeColor=#FF0000;fillColor=#FFFFFF;" parent="RpfdrgC46bGrJUgdeSrm-2" vertex="1">
          <mxGeometry y="50" width="40" height="20" as="geometry" />
        </mxCell>
        <mxCell id="RpfdrgC46bGrJUgdeSrm-5" value="" style="rounded=1;whiteSpace=wrap;html=1;strokeColor=#009900;" parent="RpfdrgC46bGrJUgdeSrm-2" vertex="1">
          <mxGeometry y="98" width="40" height="20" as="geometry" />
        </mxCell>
        <mxCell id="RpfdrgC46bGrJUgdeSrm-6" value="" style="rounded=1;whiteSpace=wrap;html=1;strokeColor=#FF8000;" parent="RpfdrgC46bGrJUgdeSrm-2" vertex="1">
          <mxGeometry y="160" width="40" height="20" as="geometry" />
        </mxCell>
        <mxCell id="RpfdrgC46bGrJUgdeSrm-7" value="" style="endArrow=classic;html=1;rounded=0;strokeColor=#009900;" parent="RpfdrgC46bGrJUgdeSrm-2" edge="1">
          <mxGeometry width="50" height="50" relative="1" as="geometry">
            <mxPoint x="3" y="234" as="sourcePoint" />
            <mxPoint x="43" y="234" as="targetPoint" />
          </mxGeometry>
        </mxCell>
        <mxCell id="RpfdrgC46bGrJUgdeSrm-8" value="" style="endArrow=classic;html=1;rounded=0;strokeColor=#FF0000;" parent="RpfdrgC46bGrJUgdeSrm-2" edge="1">
          <mxGeometry width="50" height="50" relative="1" as="geometry">
            <mxPoint x="5" y="283" as="sourcePoint" />
            <mxPoint x="44" y="283" as="targetPoint" />
          </mxGeometry>
        </mxCell>
        <mxCell id="RpfdrgC46bGrJUgdeSrm-9" value="" style="group" parent="1" vertex="1" connectable="0">
          <mxGeometry x="810" y="480" width="280" height="160" as="geometry" />
        </mxCell>
        <mxCell id="RpfdrgC46bGrJUgdeSrm-10" value="&lt;h1&gt;&lt;font style=&quot;font-size: 14px;&quot;&gt;Качественные оценки доменов&amp;nbsp;&lt;/font&gt;&lt;/h1&gt;&lt;p&gt;Сложность - S (simple), M(medium), C (complex) - простой, средней сложности, сложный&lt;/p&gt;&lt;p&gt;Размер (объём) кода - S, M, L, XL - маленький, среднего размера, большой, очень большой&lt;/p&gt;&lt;p&gt;&lt;span style=&quot;background-color: initial;&quot;&gt;&amp;nbsp; &amp;nbsp;&amp;nbsp; &amp;nbsp; &amp;nbsp;- сложный и очень большой (Complex eXtra Large)&lt;/span&gt;&lt;br&gt;&lt;/p&gt;" style="text;html=1;strokeColor=none;fillColor=none;spacing=5;spacingTop=-20;whiteSpace=wrap;overflow=hidden;rounded=0;fontSize=10;" parent="RpfdrgC46bGrJUgdeSrm-9" vertex="1">
          <mxGeometry width="280" height="160" as="geometry" />
        </mxCell>
        <mxCell id="RpfdrgC46bGrJUgdeSrm-11" value="CXL" style="ellipse;whiteSpace=wrap;html=1;aspect=fixed;strokeColor=#000000;fontSize=10;fillColor=#FFFFFF;" parent="RpfdrgC46bGrJUgdeSrm-9" vertex="1">
          <mxGeometry x="3" y="105" width="20" height="20" as="geometry" />
        </mxCell>
        <mxCell id="czWyylls0Mwf-M6tfecd-1" value="5. Приводы" style="rounded=1;whiteSpace=wrap;html=1;strokeColor=#00FF00;" parent="1" vertex="1">
          <mxGeometry x="334" y="530" width="120" height="60" as="geometry" />
        </mxCell>
        <mxCell id="czWyylls0Mwf-M6tfecd-2" style="edgeStyle=orthogonalEdgeStyle;rounded=0;orthogonalLoop=1;jettySize=auto;html=1;strokeColor=#00CC00;" parent="1" source="czWyylls0Mwf-M6tfecd-3" edge="1">
          <mxGeometry relative="1" as="geometry">
            <mxPoint x="460" y="320" as="targetPoint" />
          </mxGeometry>
        </mxCell>
        <mxCell id="czWyylls0Mwf-M6tfecd-3" value="4. Навигация" style="rounded=1;whiteSpace=wrap;html=1;strokeColor=#FF9900;" parent="1" vertex="1">
          <mxGeometry x="520" y="290" width="120" height="60" as="geometry" />
        </mxCell>
        <mxCell id="czWyylls0Mwf-M6tfecd-4" style="edgeStyle=orthogonalEdgeStyle;rounded=0;orthogonalLoop=1;jettySize=auto;html=1;entryX=0;entryY=0.5;entryDx=0;entryDy=0;strokeColor=#FF0000;" parent="1" source="czWyylls0Mwf-M6tfecd-6" target="czWyylls0Mwf-M6tfecd-8" edge="1">
          <mxGeometry relative="1" as="geometry" />
        </mxCell>
        <mxCell id="czWyylls0Mwf-M6tfecd-5" style="edgeStyle=orthogonalEdgeStyle;rounded=0;orthogonalLoop=1;jettySize=auto;html=1;entryX=0.5;entryY=0;entryDx=0;entryDy=0;strokeColor=#FF0000;" parent="1" source="czWyylls0Mwf-M6tfecd-6" target="czWyylls0Mwf-M6tfecd-10" edge="1">
          <mxGeometry relative="1" as="geometry" />
        </mxCell>
        <mxCell id="czWyylls0Mwf-M6tfecd-6" value="2.Сбор и анализ данных" style="rounded=1;whiteSpace=wrap;html=1;strokeColor=#FF0000;" parent="1" vertex="1">
          <mxGeometry x="160" y="290" width="120" height="60" as="geometry" />
        </mxCell>
        <mxCell id="czWyylls0Mwf-M6tfecd-7" value="1. Связь" style="rounded=1;whiteSpace=wrap;html=1;strokeColor=#FF9900;" parent="1" vertex="1">
          <mxGeometry x="340" y="170" width="120" height="60" as="geometry" />
        </mxCell>
        <mxCell id="czWyylls0Mwf-M6tfecd-8" value="3. Центральная система управления" style="rounded=1;whiteSpace=wrap;html=1;strokeColor=#FF9900;" parent="1" vertex="1">
          <mxGeometry x="340" y="290" width="120" height="60" as="geometry" />
        </mxCell>
        <mxCell id="czWyylls0Mwf-M6tfecd-9" value="6.&amp;nbsp;Полётный контроллер" style="rounded=1;whiteSpace=wrap;html=1;strokeColor=#00FF00;" parent="1" vertex="1">
          <mxGeometry x="339" y="410" width="120" height="60" as="geometry" />
        </mxCell>
        <mxCell id="czWyylls0Mwf-M6tfecd-10" value="5. Нейтрализатор" style="rounded=1;whiteSpace=wrap;html=1;strokeColor=#FF0000;" parent="1" vertex="1">
          <mxGeometry x="160" y="411" width="120" height="60" as="geometry" />
        </mxCell>
        <mxCell id="czWyylls0Mwf-M6tfecd-11" style="edgeStyle=orthogonalEdgeStyle;rounded=0;orthogonalLoop=1;jettySize=auto;html=1;strokeColor=#00FF00;" parent="1" source="czWyylls0Mwf-M6tfecd-12" target="czWyylls0Mwf-M6tfecd-17" edge="1">
          <mxGeometry relative="1" as="geometry" />
        </mxCell>
        <mxCell id="czWyylls0Mwf-M6tfecd-12" value="9. Контроль батареи" style="rounded=1;whiteSpace=wrap;html=1;strokeColor=#00FF00;" parent="1" vertex="1">
          <mxGeometry x="520" y="529" width="120" height="60" as="geometry" />
        </mxCell>
        <mxCell id="czWyylls0Mwf-M6tfecd-13" value="8. Приводы" style="rounded=1;whiteSpace=wrap;html=1;strokeColor=#00FF00;" parent="1" vertex="1">
          <mxGeometry x="344" y="540" width="120" height="60" as="geometry" />
        </mxCell>
        <mxCell id="czWyylls0Mwf-M6tfecd-15" value="" style="endArrow=classic;startArrow=classic;html=1;rounded=0;exitX=0.5;exitY=0;exitDx=0;exitDy=0;strokeColor=#00FF00;" parent="1" edge="1">
          <mxGeometry width="50" height="50" relative="1" as="geometry">
            <mxPoint x="399.76" y="411" as="sourcePoint" />
            <mxPoint x="399.76" y="351" as="targetPoint" />
          </mxGeometry>
        </mxCell>
        <mxCell id="czWyylls0Mwf-M6tfecd-16" value="" style="endArrow=classic;startArrow=classic;html=1;rounded=0;exitX=0.457;exitY=0.019;exitDx=0;exitDy=0;exitPerimeter=0;strokeColor=#00FF00;" parent="1" source="czWyylls0Mwf-M6tfecd-13" edge="1">
          <mxGeometry width="50" height="50" relative="1" as="geometry">
            <mxPoint x="398.76" y="531" as="sourcePoint" />
            <mxPoint x="398.76" y="471" as="targetPoint" />
          </mxGeometry>
        </mxCell>
        <mxCell id="czWyylls0Mwf-M6tfecd-17" value="7. Самодиагностика и мониторинг" style="rounded=1;whiteSpace=wrap;html=1;strokeColor=#00FF00;" parent="1" vertex="1">
          <mxGeometry x="520" y="410" width="120" height="60" as="geometry" />
        </mxCell>
        <mxCell id="czWyylls0Mwf-M6tfecd-18" value="" style="endArrow=classic;startArrow=classic;html=1;rounded=0;entryX=0;entryY=1;entryDx=0;entryDy=0;strokeColor=#FF0000;exitX=1;exitY=0.5;exitDx=0;exitDy=0;" parent="1" target="czWyylls0Mwf-M6tfecd-8" edge="1" source="czWyylls0Mwf-M6tfecd-10">
          <mxGeometry width="50" height="50" relative="1" as="geometry">
            <mxPoint x="280" y="410" as="sourcePoint" />
            <mxPoint x="260" y="351" as="targetPoint" />
          </mxGeometry>
        </mxCell>
        <mxCell id="czWyylls0Mwf-M6tfecd-19" value="" style="endArrow=classic;startArrow=classic;html=1;rounded=0;entryX=1;entryY=1;entryDx=0;entryDy=0;exitX=0;exitY=0.5;exitDx=0;exitDy=0;strokeColor=#00FF00;" parent="1" source="czWyylls0Mwf-M6tfecd-17" target="czWyylls0Mwf-M6tfecd-8" edge="1">
          <mxGeometry width="50" height="50" relative="1" as="geometry">
            <mxPoint x="490" y="411" as="sourcePoint" />
            <mxPoint x="550" y="351" as="targetPoint" />
          </mxGeometry>
        </mxCell>
        <mxCell id="czWyylls0Mwf-M6tfecd-20" style="edgeStyle=orthogonalEdgeStyle;rounded=0;orthogonalLoop=1;jettySize=auto;html=1;entryX=1;entryY=0.417;entryDx=0;entryDy=0;entryPerimeter=0;strokeColor=#FF0000;" parent="1" source="czWyylls0Mwf-M6tfecd-21" target="czWyylls0Mwf-M6tfecd-3" edge="1">
          <mxGeometry relative="1" as="geometry" />
        </mxCell>
        <mxCell id="czWyylls0Mwf-M6tfecd-21" value="" style="fontColor=#0066CC;verticalAlign=top;verticalLabelPosition=bottom;labelPosition=center;align=center;html=1;outlineConnect=0;fillColor=#CCCCCC;strokeColor=#FF0000;gradientColor=none;gradientDirection=north;strokeWidth=2;shape=mxgraph.networks.satellite;" parent="1" vertex="1">
          <mxGeometry x="690" y="290" width="60" height="50" as="geometry" />
        </mxCell>
        <mxCell id="czWyylls0Mwf-M6tfecd-23" value="" style="endArrow=classic;html=1;rounded=0;entryX=0;entryY=0.5;entryDx=0;entryDy=0;strokeColor=#FF0000;" parent="1" target="czWyylls0Mwf-M6tfecd-6" edge="1">
          <mxGeometry width="50" height="50" relative="1" as="geometry">
            <mxPoint x="100" y="320" as="sourcePoint" />
            <mxPoint x="70" y="270" as="targetPoint" />
          </mxGeometry>
        </mxCell>
        <mxCell id="nfuGDHEsqw4dD-PpUVuW-1" value="" style="endArrow=classic;html=1;rounded=0;strokeColor=#00FF00;" parent="1" edge="1">
          <mxGeometry width="50" height="50" relative="1" as="geometry">
            <mxPoint x="420" y="170" as="sourcePoint" />
            <mxPoint x="420" y="120" as="targetPoint" />
          </mxGeometry>
        </mxCell>
        <mxCell id="nfuGDHEsqw4dD-PpUVuW-2" value="" style="endArrow=classic;html=1;rounded=0;strokeColor=#FF0000;" parent="1" edge="1">
          <mxGeometry width="50" height="50" relative="1" as="geometry">
            <mxPoint x="380" y="120" as="sourcePoint" />
            <mxPoint x="380" y="170" as="targetPoint" />
          </mxGeometry>
        </mxCell>
        <mxCell id="nfuGDHEsqw4dD-PpUVuW-3" value="" style="endArrow=classic;html=1;rounded=0;strokeColor=#00FF00;exitX=0.654;exitY=1.061;exitDx=0;exitDy=0;exitPerimeter=0;entryX=0.333;entryY=-0.026;entryDx=0;entryDy=0;entryPerimeter=0;" parent="1" target="czWyylls0Mwf-M6tfecd-8" edge="1">
          <mxGeometry width="50" height="50" relative="1" as="geometry">
            <mxPoint x="380.48" y="229.99999999999986" as="sourcePoint" />
            <mxPoint x="380" y="283.8200000000001" as="targetPoint" />
          </mxGeometry>
        </mxCell>
        <mxCell id="nfuGDHEsqw4dD-PpUVuW-4" value="" style="endArrow=classic;html=1;rounded=0;strokeColor=#00FF00;exitX=0.333;exitY=-0.026;exitDx=0;exitDy=0;exitPerimeter=0;entryX=0.337;entryY=0.966;entryDx=0;entryDy=0;entryPerimeter=0;" parent="1" edge="1">
          <mxGeometry width="50" height="50" relative="1" as="geometry">
            <mxPoint x="420.00000000000006" y="290.00000000000006" as="sourcePoint" />
            <mxPoint x="420.4799999999996" y="229.51999999999992" as="targetPoint" />
          </mxGeometry>
        </mxCell>
        <mxCell id="nfuGDHEsqw4dD-PpUVuW-5" value="CL" style="ellipse;whiteSpace=wrap;html=1;aspect=fixed;strokeColor=#FF9900;fontSize=10;fillColor=#FFFFFF;" parent="1" vertex="1">
          <mxGeometry x="438" y="160" width="30" height="30" as="geometry" />
        </mxCell>
        <mxCell id="nfuGDHEsqw4dD-PpUVuW-6" value="CXL" style="ellipse;whiteSpace=wrap;html=1;aspect=fixed;strokeColor=#FF9900;fontSize=10;fillColor=#FFFFFF;" parent="1" vertex="1">
          <mxGeometry x="440" y="280" width="30" height="30" as="geometry" />
        </mxCell>
        <mxCell id="nfuGDHEsqw4dD-PpUVuW-7" value="ML" style="ellipse;whiteSpace=wrap;html=1;aspect=fixed;strokeColor=#FF0000;fontSize=10;fillColor=#FFFFFF;" parent="1" vertex="1">
          <mxGeometry x="260" y="280" width="30" height="30" as="geometry" />
        </mxCell>
        <mxCell id="nfuGDHEsqw4dD-PpUVuW-8" value="SS" style="ellipse;whiteSpace=wrap;html=1;aspect=fixed;strokeColor=#FF0000;fontSize=10;fillColor=#FFFFFF;" parent="1" vertex="1">
          <mxGeometry x="260" y="400" width="31" height="31" as="geometry" />
        </mxCell>
        <mxCell id="nfuGDHEsqw4dD-PpUVuW-9" value="ML" style="ellipse;whiteSpace=wrap;html=1;aspect=fixed;strokeColor=#00FF00;fontSize=10;fillColor=#FFFFFF;" parent="1" vertex="1">
          <mxGeometry x="439" y="400" width="30" height="30" as="geometry" />
        </mxCell>
        <mxCell id="nfuGDHEsqw4dD-PpUVuW-10" value="SS" style="ellipse;whiteSpace=wrap;html=1;aspect=fixed;strokeColor=#FF9900;fontSize=10;fillColor=#FFFFFF;" parent="1" vertex="1">
          <mxGeometry x="620" y="280" width="30" height="30" as="geometry" />
        </mxCell>
        <mxCell id="nfuGDHEsqw4dD-PpUVuW-11" value="SM" style="ellipse;whiteSpace=wrap;html=1;aspect=fixed;strokeColor=#00FF00;fontSize=10;fillColor=#FFFFFF;" parent="1" vertex="1">
          <mxGeometry x="620" y="397" width="30" height="30" as="geometry" />
        </mxCell>
        <mxCell id="nfuGDHEsqw4dD-PpUVuW-12" value="SS" style="ellipse;whiteSpace=wrap;html=1;aspect=fixed;strokeColor=#00FF00;fontSize=10;fillColor=#FFFFFF;" parent="1" vertex="1">
          <mxGeometry x="444" y="530" width="30" height="30" as="geometry" />
        </mxCell>
        <mxCell id="nfuGDHEsqw4dD-PpUVuW-13" value="SS" style="ellipse;whiteSpace=wrap;html=1;aspect=fixed;strokeColor=#00FF00;fontSize=10;fillColor=#FFFFFF;" parent="1" vertex="1">
          <mxGeometry x="620" y="520" width="30" height="30" as="geometry" />
        </mxCell>
      </root>
    </mxGraphModel>
  </diagram>
</mxfile>
